<svg xmlns="http://www.w3.org/2000/svg" xmlns:xlink="http://www.w3.org/1999/xlink" version="1.1" x="0px" y="0px" viewBox="0 0 100 100" enable-background="new 0 0 100 100" xml:space="preserve"><g><g><path d="M59.762,74.173H20.113c-0.725,0-1.312-0.587-1.312-1.312c0-0.724,0.587-1.312,1.312-1.312h39.649    c0.725,0,1.312,0.587,1.312,1.312C61.074,73.586,60.487,74.173,59.762,74.173z"></path></g><g><path d="M59.762,79.455H20.113c-0.725,0-1.312-0.587-1.312-1.312c0-0.724,0.587-1.312,1.312-1.312h39.649    c0.725,0,1.312,0.587,1.312,1.312C61.074,78.868,60.487,79.455,59.762,79.455z"></path></g><g><path d="M66.602,44.397l-6.065,2.333c-0.341,0.131-0.723-0.039-0.854-0.38l-2.333-6.064c-0.131-0.341,0.039-0.723,0.38-0.854    l6.065-2.333c0.341-0.131,0.723,0.039,0.854,0.38l2.333,6.064C67.113,43.884,66.943,44.266,66.602,44.397z M60.68,45.259    l4.832-1.859l-1.858-4.831l-4.832,1.859L60.68,45.259z"></path></g><g><path d="M79.468,23.548l-15.017,5.776c-0.341,0.131-0.723-0.039-0.854-0.38c-0.131-0.341,0.039-0.723,0.38-0.854l15.017-5.776    c0.341-0.131,0.723,0.039,0.854,0.38C79.979,23.034,79.809,23.417,79.468,23.548z"></path></g><g><path d="M80.635,26.58l-15.017,5.776c-0.341,0.131-0.723-0.039-0.854-0.38c-0.131-0.341,0.039-0.723,0.38-0.854l15.017-5.776    c0.341-0.131,0.723,0.039,0.854,0.38C81.145,26.067,80.976,26.449,80.635,26.58z"></path></g><g><path d="M83.047,32.85L68.03,38.627c-0.341,0.131-0.723-0.039-0.854-0.38c-0.131-0.341,0.039-0.723,0.38-0.854l15.017-5.776    c0.341-0.131,0.723,0.039,0.854,0.38S83.387,32.719,83.047,32.85z"></path></g><g><path d="M84.213,35.883l-15.017,5.776c-0.341,0.131-0.723-0.039-0.854-0.38c-0.131-0.341,0.039-0.723,0.38-0.854l15.017-5.776    c0.341-0.131,0.723,0.039,0.854,0.38S84.554,35.751,84.213,35.883z"></path></g><path d="M63.404,34.241l-1.577-4.099l0.673-1.515c0.297-0.667-0.004-1.448-0.671-1.744c-0.667-0.296-1.448,0.004-1.744,0.671   l-0.157,0.354l-5.776,2.222c-0.341,0.131-0.511,0.513-0.38,0.854l2.333,6.065c0.131,0.341,0.513,0.511,0.854,0.38l6.065-2.333   C63.365,34.964,63.535,34.581,63.404,34.241z M59.168,29.616l-0.929,2.09l-0.731-0.325c-0.667-0.296-1.448,0.004-1.744,0.671   c-0.039,0.088-0.041,0.18-0.06,0.271l-0.46-1.197L59.168,29.616z M57.101,35.957l-0.893-2.321c0.075,0.055,0.138,0.121,0.226,0.161   l1.939,0.862c0.32,0.142,0.684,0.152,1.011,0.026c0.327-0.126,0.591-0.377,0.733-0.697l0.95-2.137l0.865,2.249L57.101,35.957z"></path><path d="M93.303,37.12l-0.925-2.404c-0.131-0.34-0.513-0.51-0.853-0.38c-0.34,0.13-0.716,0.103-1.031-0.074   c-0.315-0.177-0.525-0.477-0.592-0.844c-0.085-0.467,0.138-0.967,0.541-1.217c0.072-0.044,0.148-0.07,0.222-0.098   c0.341-0.131,0.511-0.513,0.379-0.854l-1.22-3.171c-0.131-0.34-0.513-0.51-0.853-0.38c-0.34,0.13-0.716,0.104-1.031-0.074   c-0.315-0.177-0.525-0.477-0.592-0.844c-0.085-0.467,0.138-0.967,0.541-1.217c0.051-0.031,0.104-0.053,0.173-0.08   c0.016-0.006,0.032-0.011,0.049-0.019c0.163-0.063,0.295-0.188,0.366-0.348c0.072-0.16,0.076-0.343,0.013-0.506l-1.306-3.396   c-0.131-0.34-0.513-0.51-0.853-0.38c-0.34,0.13-0.716,0.104-1.031-0.074c-0.315-0.177-0.525-0.477-0.592-0.845   c-0.085-0.467,0.138-0.967,0.541-1.217c0.072-0.044,0.148-0.069,0.222-0.098c0.341-0.131,0.511-0.513,0.379-0.854l-0.925-2.404   c-0.131-0.341-0.513-0.511-0.854-0.379l-3.597,1.384L49.637,28.208l-3.597,1.384c-0.341,0.131-0.511,0.513-0.379,0.854l0.925,2.404   c0.131,0.34,0.513,0.51,0.853,0.38c0.34-0.13,0.716-0.103,1.031,0.074c0.315,0.177,0.525,0.477,0.592,0.844   c0.085,0.467-0.138,0.967-0.541,1.217c-0.049,0.03-0.1,0.052-0.152,0.071c-0.368,0.137-0.591,0.517-0.45,0.881l1.137,2.955H13.912   c-0.6,0-1.123,0.407-1.271,0.989l-5.247,20.66c-0.011,0.044,0.004,0.089-0.003,0.134c-0.01,0.064-0.038,0.122-0.038,0.189v28.516   c0,0.724,0.587,1.312,1.312,1.312h62.526c0.725,0,1.312-0.587,1.312-1.312V61.245c0-0.067-0.028-0.125-0.038-0.189   c-0.007-0.045,0.008-0.09-0.003-0.134l-3.488-13.735l20.352-7.829l3.597-1.384C93.264,37.843,93.434,37.461,93.303,37.12z    M47.612,31.841l-0.482-1.252l2.364-0.909l6.81,17.704l1.093,2.841l-2.364,0.909l-0.477-1.24c0.773-0.56,1.171-1.534,0.998-2.479   c-0.136-0.75-0.589-1.391-1.244-1.76c-0.463-0.261-0.988-0.366-1.505-0.312l-0.89-2.313c0.773-0.56,1.171-1.534,0.998-2.479   c-0.136-0.75-0.589-1.391-1.244-1.759c-0.463-0.261-0.988-0.366-1.505-0.312l-0.803-2.088c0.773-0.56,1.171-1.534,0.998-2.479   c-0.136-0.75-0.589-1.391-1.243-1.76C48.655,31.892,48.129,31.787,47.612,31.841z M69.879,88.449H9.977V62.556h59.903V88.449z    M69.504,59.933H10.352l4.58-18.036h36.267c-0.042,0.036-0.077,0.078-0.125,0.107c-0.051,0.031-0.104,0.053-0.173,0.08   c-0.016,0.006-0.037,0.014-0.049,0.019c-0.163,0.063-0.295,0.188-0.366,0.348c-0.072,0.16-0.076,0.343-0.013,0.506l1.306,3.396   c0.131,0.34,0.513,0.51,0.853,0.38c0.34-0.13,0.716-0.104,1.031,0.074c0.315,0.177,0.525,0.477,0.592,0.845   c0.085,0.467-0.138,0.967-0.541,1.217c-0.072,0.044-0.147,0.07-0.222,0.098c-0.341,0.131-0.511,0.513-0.379,0.854l0.925,2.404   c0.131,0.341,0.513,0.511,0.854,0.379l3.597-1.384l8.02-3.085L69.504,59.933z M58.631,49.749L54.68,39.477l-3.951-10.272   l29.603-11.387l7.903,20.545L58.631,49.749z M89.468,37.887l-1.093-2.841l-6.81-17.704l2.364-0.909l0.477,1.24   c-0.773,0.56-1.171,1.534-0.998,2.479c0.136,0.75,0.589,1.391,1.244,1.76c0.463,0.261,0.988,0.366,1.505,0.312l0.89,2.313   c-0.773,0.56-1.171,1.534-0.998,2.479c0.136,0.75,0.589,1.391,1.244,1.759c0.463,0.261,0.988,0.366,1.505,0.312l0.803,2.088   c-0.773,0.56-1.171,1.534-0.998,2.479c0.136,0.75,0.589,1.391,1.243,1.76c0.463,0.261,0.989,0.366,1.505,0.312l0.482,1.252   L89.468,37.887z"></path><path d="M41.755,55.874h-3.655c-0.378,0-0.738-0.163-0.986-0.448c-0.25-0.284-0.364-0.662-0.314-1.037l1.312-9.862   c0.087-0.652,0.643-1.139,1.3-1.139h1.031c0.657,0,1.213,0.487,1.3,1.139l1.312,9.862c0.05,0.375-0.064,0.753-0.314,1.037   C42.493,55.711,42.133,55.874,41.755,55.874z"></path></g></svg>