<svg xmlns="http://www.w3.org/2000/svg" xmlns:xlink="http://www.w3.org/1999/xlink" version="1.1" x="0px" y="0px" viewBox="0 0 100 100" enable-background="new 0 0 100 100" xml:space="preserve"><path d="M87.362,73.619l-5.173-3.232l-0.193,0.053c-0.48,0.133-1.051,0.209-1.138,0.199c-0.099-0.107-0.265-0.645-0.351-1.123  l-0.034-0.201l-14.656-9.16c-1.264-0.789-2.845-0.633-3.944,0.256l-2.421-2.291c3.434-7.154,1.013-15.924-5.872-20.225  c-7.389-4.617-17.157-2.363-21.775,5.025c-4.616,7.391-2.361,17.158,5.028,21.777c6.884,4.299,15.828,2.631,20.752-3.592  l3.123,1.172c-0.317,1.379,0.234,2.867,1.499,3.656l14.657,9.158l0.197-0.057c0.467-0.135,1.021-0.221,1.104-0.215  c0.105,0.109,0.285,0.656,0.379,1.148l0.036,0.197l5.172,3.23c1.594,0.996,3.7,0.51,4.694-1.084  C89.44,76.721,88.955,74.613,87.362,73.619z M59.872,49.102l0.008,0.059c0.087,0.617,0.136,1.24,0.145,1.857  c0,0.115-0.084,0.213-0.197,0.229c-0.01,0.002-0.019,0.004-0.03,0.002c-0.126,0.002-0.229-0.098-0.232-0.225  c-0.008-0.598-0.056-1.201-0.14-1.799l-0.008-0.061c-0.017-0.125,0.07-0.24,0.196-0.258C59.738,48.889,59.854,48.977,59.872,49.102z   M56.718,42.25c0.101-0.072,0.245-0.055,0.321,0.045c0.373,0.494,0.718,1.018,1.026,1.553c0.063,0.109,0.024,0.25-0.086,0.313  c-0.026,0.016-0.053,0.025-0.082,0.029c-0.089,0.012-0.182-0.029-0.229-0.113c-0.299-0.52-0.633-1.025-0.994-1.504  C56.597,42.471,56.617,42.328,56.718,42.25z M54.125,39.672c0.079-0.1,0.223-0.115,0.322-0.037c0.483,0.387,0.947,0.807,1.379,1.25  c0.088,0.09,0.086,0.236-0.004,0.322c-0.036,0.037-0.081,0.059-0.127,0.064c-0.07,0.01-0.144-0.014-0.197-0.066  c-0.417-0.43-0.867-0.838-1.337-1.211C54.063,39.914,54.046,39.771,54.125,39.672z M50.974,37.813  c0.053-0.115,0.188-0.168,0.303-0.117c0.565,0.256,1.118,0.549,1.646,0.871c0.108,0.066,0.142,0.207,0.076,0.316  c-0.037,0.061-0.098,0.098-0.163,0.105c-0.051,0.008-0.104-0.002-0.151-0.029c-0.512-0.314-1.049-0.598-1.595-0.844  C50.973,38.063,50.922,37.928,50.974,37.813z M47.722,36.607c0.609,0.105,1.219,0.25,1.813,0.434  c0.12,0.037,0.188,0.164,0.151,0.285c-0.027,0.088-0.102,0.148-0.187,0.16c-0.032,0.004-0.067,0.002-0.099-0.008  c-0.574-0.176-1.166-0.318-1.755-0.418c-0.125-0.023-0.209-0.141-0.187-0.266S47.599,36.588,47.722,36.607z M44.01,36.441  c0.62-0.051,1.246-0.061,1.862-0.033c0.127,0.006,0.225,0.113,0.219,0.24c-0.006,0.109-0.09,0.199-0.197,0.215  c-0.014,0.002-0.028,0.004-0.042,0.002c-0.598-0.027-1.204-0.016-1.804,0.033c-0.126,0.01-0.236-0.084-0.246-0.209  C43.791,36.563,43.881,36.441,44.01,36.441z M40.375,37.197c0.582-0.199,1.186-0.365,1.795-0.492  c0.117-0.027,0.245,0.055,0.27,0.178c0.026,0.125-0.054,0.246-0.177,0.271c-0.59,0.123-1.176,0.283-1.74,0.477  c-0.013,0.006-0.027,0.008-0.042,0.012c-0.106,0.014-0.211-0.049-0.249-0.154C40.191,37.369,40.254,37.238,40.375,37.197z   M37.039,38.836c0.515-0.34,1.059-0.65,1.615-0.926c0.114-0.057,0.251-0.008,0.307,0.105c0.055,0.113,0.008,0.25-0.105,0.307  c-0.539,0.266-1.067,0.566-1.565,0.896c-0.03,0.018-0.062,0.031-0.095,0.033c-0.084,0.014-0.172-0.023-0.223-0.1  C36.904,39.047,36.933,38.906,37.039,38.836z M34.219,41.252c0.416-0.459,0.865-0.895,1.335-1.297  c0.095-0.082,0.24-0.072,0.322,0.023c0.083,0.098,0.071,0.242-0.024,0.324c-0.456,0.391-0.891,0.813-1.294,1.258  c-0.037,0.041-0.086,0.064-0.137,0.072c-0.065,0.01-0.134-0.01-0.186-0.057C34.141,41.49,34.134,41.346,34.219,41.252z   M32.083,44.293c0.29-0.545,0.618-1.08,0.973-1.586c0.073-0.104,0.216-0.129,0.318-0.059c0.104,0.074,0.129,0.217,0.057,0.32  c-0.345,0.492-0.662,1.01-0.942,1.539c-0.037,0.068-0.102,0.109-0.172,0.119c-0.046,0.006-0.095,0-0.139-0.023  C32.066,44.543,32.023,44.404,32.083,44.293z M31.317,45.988c0.045-0.117,0.177-0.178,0.295-0.133  c0.119,0.047,0.179,0.178,0.133,0.295c-0.212,0.564-0.392,1.145-0.531,1.725c-0.022,0.096-0.1,0.162-0.189,0.176  c-0.028,0.004-0.057,0.002-0.085-0.006c-0.123-0.029-0.199-0.152-0.169-0.275C30.913,47.168,31.098,46.57,31.317,45.988z   M30.365,51.465c-0.011-0.621,0.018-1.248,0.085-1.861c0.013-0.125,0.124-0.219,0.253-0.201c0.125,0.014,0.216,0.127,0.203,0.252  c-0.067,0.592-0.094,1.199-0.083,1.803c0.001,0.115-0.084,0.215-0.197,0.229c-0.01,0.002-0.019,0.004-0.029,0.004  C30.472,51.691,30.368,51.59,30.365,51.465z M31.171,55.301c-0.009,0.004-0.019,0.006-0.029,0.008  c-0.112,0.016-0.222-0.055-0.252-0.168c-0.161-0.594-0.289-1.207-0.375-1.82c-0.019-0.127,0.068-0.242,0.193-0.262h0  c0.125-0.018,0.241,0.07,0.259,0.195c0.085,0.596,0.208,1.191,0.365,1.768C31.365,55.143,31.292,55.268,31.171,55.301z   M32.623,58.66c-0.027,0.016-0.054,0.025-0.082,0.027c-0.09,0.014-0.183-0.029-0.231-0.113c-0.306-0.537-0.582-1.098-0.819-1.672  c-0.048-0.115,0.008-0.25,0.124-0.299c0.117-0.049,0.251,0.008,0.3,0.125c0.229,0.553,0.496,1.1,0.793,1.619  C32.771,58.459,32.732,58.598,32.623,58.66z M34.866,61.549c-0.036,0.035-0.081,0.055-0.128,0.061  c-0.069,0.012-0.143-0.012-0.196-0.066c-0.43-0.443-0.837-0.92-1.209-1.414c-0.075-0.102-0.054-0.244,0.046-0.32  c0.101-0.074,0.245-0.057,0.32,0.045c0.36,0.479,0.755,0.941,1.173,1.371C34.959,61.316,34.957,61.459,34.866,61.549z   M37.755,63.791c-0.038,0.061-0.098,0.098-0.163,0.107c-0.051,0.006-0.104-0.004-0.153-0.033c-0.528-0.324-1.04-0.684-1.521-1.07  c-0.099-0.078-0.115-0.223-0.035-0.322c0.079-0.098,0.222-0.115,0.322-0.035c0.467,0.375,0.963,0.725,1.475,1.039  C37.788,63.543,37.821,63.684,37.755,63.791z M40.925,65.408c-0.032,0.004-0.066,0.002-0.1-0.008  c-0.59-0.182-1.175-0.404-1.741-0.66c-0.115-0.053-0.166-0.188-0.114-0.303c0.053-0.117,0.189-0.166,0.304-0.115  c0.548,0.248,1.116,0.463,1.688,0.641c0.12,0.037,0.188,0.166,0.151,0.287C41.084,65.336,41.01,65.396,40.925,65.408z M44.53,66.039  c-0.014,0.002-0.029,0.002-0.044,0c-0.618-0.027-1.239-0.096-1.849-0.203c-0.125-0.021-0.208-0.141-0.186-0.266  c0.022-0.123,0.14-0.207,0.266-0.186c0.589,0.104,1.192,0.17,1.792,0.199c0.125,0.004,0.223,0.111,0.218,0.238  C44.721,65.934,44.637,66.023,44.53,66.039z M48.19,65.75c-0.3,0.063-0.604,0.113-0.912,0.156c-0.291,0.055-0.621,0.08-0.93,0.105  c-0.127,0.008-0.237-0.084-0.248-0.211c-0.01-0.127,0.073-0.236,0.21-0.248c0.3-0.023,0.592-0.064,0.904-0.1  c0.297-0.041,0.593-0.092,0.882-0.152c0.121-0.029,0.246,0.055,0.271,0.18C48.395,65.604,48.314,65.725,48.19,65.75z M51.708,64.553  c-0.558,0.271-1.137,0.512-1.722,0.709c-0.015,0.004-0.028,0.01-0.043,0.01c-0.106,0.016-0.212-0.047-0.248-0.154  c-0.04-0.117,0.024-0.248,0.143-0.291c0.566-0.189,1.127-0.422,1.667-0.686c0.116-0.057,0.251-0.008,0.306,0.105  C51.868,64.359,51.821,64.496,51.708,64.553z M54.813,62.516c-0.47,0.4-0.97,0.775-1.488,1.115c-0.029,0.02-0.062,0.031-0.094,0.037  c-0.085,0.012-0.173-0.025-0.224-0.102c-0.07-0.105-0.04-0.248,0.066-0.318c0.501-0.328,0.987-0.693,1.442-1.082  c0.095-0.082,0.241-0.07,0.322,0.025C54.921,62.289,54.91,62.432,54.813,62.516z M57.316,59.77  c-0.355,0.504-0.749,0.992-1.166,1.451c-0.037,0.041-0.086,0.066-0.137,0.072c-0.065,0.01-0.134-0.01-0.186-0.057  c-0.094-0.086-0.101-0.23-0.016-0.324c0.405-0.445,0.786-0.918,1.13-1.406c0.072-0.104,0.217-0.127,0.319-0.055  C57.364,59.523,57.389,59.666,57.316,59.77z M56.564,58.393c-3.919,6.271-12.183,8.18-18.455,4.26  c-6.273-3.92-8.18-12.182-4.261-18.455c3.92-6.273,12.184-8.18,18.456-4.262C58.576,43.855,60.484,52.119,56.564,58.393z   M58.292,58.186c-0.036,0.066-0.101,0.107-0.17,0.119c-0.046,0.006-0.095-0.002-0.14-0.025c-0.112-0.061-0.154-0.197-0.095-0.311  c0.283-0.531,0.534-1.082,0.747-1.643c0.045-0.119,0.178-0.178,0.294-0.133c0.12,0.045,0.179,0.178,0.133,0.297  C58.842,57.066,58.583,57.637,58.292,58.186z M59.05,47.4c-0.159-0.578-0.357-1.152-0.586-1.705  c-0.049-0.119,0.006-0.252,0.124-0.301c0.117-0.051,0.252,0.008,0.299,0.123c0.238,0.572,0.441,1.164,0.605,1.762  c0.034,0.121-0.038,0.246-0.16,0.281c-0.01,0.002-0.02,0.004-0.029,0.006C59.191,47.582,59.082,47.512,59.05,47.4z M59.337,54.879  c-0.125-0.031-0.199-0.154-0.169-0.277c0.141-0.586,0.247-1.182,0.313-1.777c0.014-0.125,0.126-0.217,0.253-0.201  c0.125,0.014,0.216,0.127,0.203,0.252c-0.069,0.613-0.177,1.23-0.323,1.834c-0.023,0.096-0.1,0.162-0.192,0.174  C59.394,54.887,59.366,54.885,59.337,54.879z"></path><path d="M45.205,34.715c1.947,0,3.809,0.35,5.548,0.961h0.388v-3.021H16.849v3.021h22.809  C41.396,35.064,43.258,34.715,45.205,34.715z"></path><path d="M32.557,40.502H16.849v3.021h13.603C31.039,42.436,31.752,41.428,32.557,40.502z"></path><path d="M16.849,48.348v3.021h11.603c0.006-1.033,0.111-2.041,0.297-3.021H16.849z"></path><path d="M16.849,56.195v3.021h13.502c-0.5-0.957-0.909-1.967-1.218-3.021H16.849z"></path><path d="M16.849,67.064h22.24c-1.828-0.719-3.494-1.746-4.943-3.021H16.849V67.064z"></path><path d="M33.566,47.011c-0.022,0.051-0.042,0.098-0.065,0.149c-0.046,0.153-0.093,0.315-0.141,0.474  c-0.004,0.014-0.01,0.027-0.014,0.042h0.001c-0.033,0.112-0.065,0.22-0.099,0.334c-0.197,0.582-0.271,1.225-0.379,1.889  c-0.025,0.666-0.123,1.361-0.042,2.066c0.01,0.709,0.166,1.412,0.285,2.121c0.203,0.691,0.374,1.391,0.675,2.033  c0.24,0.666,0.631,1.25,0.945,1.838c0.314,0.445,0.613,0.872,0.941,1.257c0.001,0.001,0.001,0.002,0.002,0.003l0,0  c0.076,0.088,0.144,0.188,0.224,0.27c0.206,0.223,0.404,0.441,0.599,0.652c0.218,0.188,0.426,0.367,0.628,0.539  c0.382,0.357,0.803,0.621,1.165,0.852c0.352,0.248,0.675,0.414,0.951,0.531c0.543,0.252,0.864,0.383,0.864,0.383  s-0.233-0.256-0.658-0.68c-0.222-0.201-0.466-0.473-0.722-0.779c-0.263-0.301-0.558-0.631-0.846-1.033  c-0.146-0.195-0.299-0.396-0.456-0.607c-0.026-0.041-0.055-0.086-0.082-0.127h16.169V53H34.772c-0.075-0.393-0.144-0.785-0.172-1.18  c-0.09-0.617-0.088-1.229-0.118-1.826c0.059-0.59,0.015-1.178,0.111-1.721c0.025-0.205,0.048-0.401,0.071-0.598h18.851v-6.217  H37.387C35.655,42.917,34.328,44.83,33.566,47.011z"></path><path d="M57.399,63.648c-0.322,0.314-0.654,0.619-1,0.908v16.227H12.042V19.217H47.56v8.805h8.84v10.16  c0.346,0.291,0.678,0.594,1,0.91V27.533l-8.84-8.797v-0.02h-0.021l-0.502-0.5H11.042v63.566h46.357V63.648z M48.56,20.146  l6.909,6.875H48.56V20.146z"></path></svg>