<svg xmlns="http://www.w3.org/2000/svg" xmlns:xlink="http://www.w3.org/1999/xlink" version="1.1" x="0px" y="0px" viewBox="0 0 100 100" style="enable-background:new 0 0 100 100;" xml:space="preserve"><style type="text/css">
	.st0{fill:none;}
</style><g><path d="M44,66.5c7,0,17.2-26.1,17.2-34.3C61.2,22.7,53.5,15,44,15c-9.5,0-17.2,7.7-17.2,17.2C26.8,40,37.5,66.5,44,66.5z    M30.3,32.2c0-7.6,6.2-13.8,13.8-13.8c7.6,0,13.8,6.2,13.8,13.8c0,3.9-2.2,11.3-5.6,18.8c-3.6,7.9-6.8,12.1-8.2,12.1   c-0.6,0-3.7-3-7.9-12.1C32.6,43.4,30.3,35.9,30.3,32.2z"></path><path d="M54.6,32.5c0-5.8-4.7-10.5-10.5-10.5c-5.8,0-10.5,4.7-10.5,10.5C33.5,38.3,38.2,43,44,43C49.8,43,54.6,38.3,54.6,32.5z    M36.6,32.5c0-4.1,3.3-7.4,7.4-7.4c4.1,0,7.4,3.3,7.4,7.4c0,4.1-3.3,7.4-7.4,7.4C40,39.9,36.6,36.5,36.6,32.5z"></path><path d="M84.5,82.3L71.3,45.3c-0.2-0.4-0.5-0.8-0.9-0.9l-9.5-3.5l-0.1,0.4c-0.4,1.4-0.9,2.9-1.4,4.4l0,0.1l1.4,10.5l-7.1,2.3   l-0.1,0.1c-0.6,1-1.1,1.9-1.7,2.8l0,0c-0.7,1.1-1.7,2.1-2.4,2.9l-0.3,0.1V80l-10.6-3.4L40.1,66L40,65.9c-0.6-0.6-1.3-1.3-1.9-2.2   l-0.6-0.8l-1.8,13.6l-14.1,4L27.8,63l7.7-3.1l-0.2-0.4c-0.4-0.6-0.8-1.3-1.1-2L34,57.2l-4.8,1.9l2.4-6.7l-0.1-0.2   c-0.5-1-0.9-2-1.3-3l-0.4-1L17.6,82.3c-0.2,0.5-0.1,1.1,0.3,1.6c0.3,0.3,0.7,0.5,1.1,0.5c0.1,0,0.3,0,0.4-0.1L37,79.3l13,4   c0,0,0,0,0,0c0.2,0.2,0.5,0.3,0.8,0.3c0.2,0,0.5,0,0.6,0c0.3,0,0.6-0.1,0.8-0.3c0,0,0,0,0,0l13-4l17.5,4.9c0.5,0.2,1.2,0,1.5-0.4   C84.6,83.4,84.7,82.8,84.5,82.3z M52.6,80V62.1l8.5-2.7l2.3,17.2L52.6,80z M62.3,44.7l6.4,2.3l4.2,11.8l-9.1-2.4L62.3,44.7z    M66.5,76.5l-2.2-16.7l9.9,2.7l6.5,18L66.5,76.5z"></path></g></svg>