<svg xmlns="http://www.w3.org/2000/svg" xmlns:xlink="http://www.w3.org/1999/xlink" version="1.1" x="0px" y="0px" viewBox="0 0 100 100" enable-background="new 0 0 100 100" xml:space="preserve"><g><path fill="#000000" d="M71.1,23.9c0-3.5-2.8-6.3-6.3-6.3c-3.5,0-6.3,2.8-6.3,6.3c0,3.5,2.8,6.3,6.3,6.3   C68.3,30.2,71.1,27.4,71.1,23.9z M59.6,23.9c0-2.8,2.3-5.2,5.2-5.2c2.8,0,5.2,2.3,5.2,5.2c0,2.8-2.3,5.2-5.2,5.2   C62,29.1,59.6,26.8,59.6,23.9z"></path><path fill="#000000" d="M95,89l-7.5-49.5c0-0.2-0.1-0.3-0.3-0.4l-10.7-5c1.2-2.5,2-5.2,2-7.9C78.6,17,73.4,11,65,10.4   c-0.1,0-0.1,0-0.2,0C56.3,10.9,51,16.9,51,26.2c0,3.3,1.4,6.7,3.3,9.8L50,38l-17.7-7.5c-0.1-0.1-0.3-0.1-0.4,0l-19.1,8.6   c-0.2,0.1-0.3,0.2-0.3,0.4L5,89c0,0.2,0,0.4,0.2,0.5c0.2,0.1,0.4,0.2,0.5,0.1l23.5-8.6l20.6,7.6c0.1,0,0.3,0,0.4,0l20.6-7.6   l23.5,8.6c0.1,0,0.1,0,0.2,0c0.1,0,0.3,0,0.4-0.1C94.9,89.4,95,89.2,95,89z M64.7,11.5C64.7,11.5,64.7,11.5,64.7,11.5   c8,0.5,12.7,6,12.8,14.7c0,9.4-10.5,18.4-12.6,20.1c-2-1.7-12.7-11.3-12.7-20.1C52.2,17.5,56.8,12,64.7,11.5z M29.8,74.9l1.4-17.5   l18.2,10v14.7L29.8,74.9z M49.4,44.2v21.9l-18.1-10L32.6,37L49.4,44.2z M64.4,47.3c0.1,0.1,0.1,0.1,0.2,0.2c0.1,0,0.2,0.1,0.2,0.1   c0.1,0,0.2,0,0.3-0.1c0.2-0.1,1.2-0.9,2.7-2.3l0.4,7.9l-17.7,6.3V44.2l6.9-3.8C60.6,44.1,63.8,46.8,64.4,47.3z M30.2,56.1L15,62.2   l2.9-18.9l13.7-6.2L30.2,56.1z M14.8,63.4l15.3-6.1l-1.4,17.5L12.2,81L14.8,63.4z M50.6,60.4l17.8-6.3l1.8,20.8l-19.6,7.2V60.4z    M71.3,74.9l-1.8-20.7l15.2,5.6L87.8,81L71.3,74.9z M69.4,52.9l-0.4-8.9c1.4-1.4,3-3.1,4.5-5l8.7,4.2l2.3,15.3L69.4,52.9z    M70.9,79.8c-0.1,0-0.3,0-0.4,0L50,87.4l-20.6-7.6c-0.1,0-0.3,0-0.4,0L6.2,88.2L13.5,40l18.6-8.4l17.7,7.5c0.1,0.1,0.3,0.1,0.5,0   l4.6-2.3c0.6,0.9,1.2,1.8,1.9,2.6L50,43.2l-17.6-7.5c0,0-0.1,0-0.1,0c0,0-0.1,0-0.1,0c0,0,0,0,0,0c0,0-0.1,0-0.1,0c0,0-0.1,0-0.1,0   c0,0,0,0,0,0l-14.8,6.7c-0.2,0.1-0.3,0.2-0.3,0.4l-5.9,38.9c0,0.2,0,0.4,0.2,0.5c0.2,0.1,0.4,0.2,0.5,0.1l17.6-6.5l20.6,7.6   c0.1,0,0.1,0,0.2,0s0.1,0,0.2,0l20.6-7.6l17.6,6.5c0.2,0.1,0.4,0,0.5-0.1c0.2-0.1,0.2-0.3,0.2-0.5l-5.9-38.9c0-0.2-0.1-0.3-0.3-0.4   l-8.8-4.2c0.7-1,1.3-2,1.9-3.1L86.5,40l7.3,48.2L70.9,79.8z"></path></g></svg>