<svg xmlns:dc="http://purl.org/dc/elements/1.1/" xmlns:cc="http://creativecommons.org/ns#" xmlns:rdf="http://www.w3.org/1999/02/22-rdf-syntax-ns#" xmlns:svg="http://www.w3.org/2000/svg" xmlns="http://www.w3.org/2000/svg" xmlns:sodipodi="http://sodipodi.sourceforge.net/DTD/sodipodi-0.dtd" xmlns:inkscape="http://www.inkscape.org/namespaces/inkscape" version="1.1" x="0px" y="0px" viewBox="0 0 100 100"><g transform="translate(0,-952.36218)"><path style="text-indent:0;text-transform:none;direction:ltr;block-progression:tb;baseline-shift:baseline;color:#000000;enable-background:accumulate;" d="M 86.34375 6 L 53.40625 6.6875 A 2.0001998 2.0001998 0 0 0 52.03125 7.28125 L 7.15625 52.125 C 5.6202369 53.6607 5.6207 56.24535 7.15625 57.78125 L 42.21875 92.8125 C 43.754224 94.3484 46.307946 94.3483 47.84375 92.8125 L 92.71875 47.96875 A 2.0001998 2.0001998 0 0 0 93.3125 46.59375 L 94 13.625 A 2.0001998 2.0001998 0 0 0 94 13.59375 C 94.000047 11.72822 93.629092 9.59753 92.03125 8 C 90.434675 6.40341 88.28181 5.99789 86.375 6 A 2.0001998 2.0001998 0 0 0 86.34375 6 z M 86.40625 10 C 86.41688 9.99999 86.42687 9.99994 86.4375 10 C 87.600483 10.006 88.811998 10.40575 89.21875 10.8125 C 89.624451 11.21812 89.993152 12.36119 90 13.5625 C 90.000063 13.5735 90 13.58285 90 13.59375 L 89.34375 45.65625 L 45.03125 90 L 10 54.96875 L 10 54.9375 L 54.3125 10.65625 L 86.40625 10 z M 77 16 C 75.204356 16 73.42096 16.70404 72.0625 18.0625 C 69.345581 20.77942 69.345581 25.22058 72.0625 27.9375 C 74.779419 30.65442 79.220581 30.65442 81.9375 27.9375 C 84.654419 25.22058 84.654419 20.77942 81.9375 18.0625 C 80.57904 16.70404 78.795644 16 77 16 z M 77 20 C 77.763579 20 78.530838 20.280835 79.125 20.875 C 80.313324 22.06332 80.313324 23.93667 79.125 25.125 C 77.936676 26.31332 76.063324 26.31332 74.875 25.125 C 73.686676 23.93667 73.686676 22.06332 74.875 20.875 C 75.469162 20.280835 76.236421 20 77 20 z M 49.78125 29.96875 A 2.0001999 2.0001999 0 0 0 48 32 L 48 34.15625 C 46.102673 34.45893 44.380912 35.202298 43 36.375 C 41.148896 37.947 40 40.33066 40 43 C 40 45.9131 41.592973 48.1144 43.46875 49.3125 C 44.942575 50.253864 46.503999 50.811783 48 51.375 L 48 61.8125 C 45.896467 61.355745 44.415931 60.14024 43.9375 58.4375 A 2.0131943 2.0131943 0 1 0 40.0625 59.53125 C 41.07896 63.148913 44.34549 65.27744 48 65.84375 L 48 68 A 2.0001999 2.0001999 0 1 0 52 68 L 52 65.84375 C 53.897331 65.532249 55.619094 64.766452 57 63.59375 C 58.851096 62.02165 60 59.6693 60 57 C 60 54.0869 58.407039 51.85445 56.53125 50.65625 C 55.055905 49.713921 53.497365 49.15751 52 48.59375 L 52 38.21875 C 54.103046 38.66717 55.584138 39.828756 56.0625 41.53125 A 2.0132011 2.0132011 0 1 0 59.9375 40.4375 C 58.92104 36.819922 55.65451 34.74697 52 34.1875 L 52 32 A 2.0001999 2.0001999 0 0 0 49.78125 29.96875 z M 48 38.25 L 48 47.0625 C 47.046681 46.694725 46.196466 46.322478 45.59375 45.9375 C 44.449527 45.20664 44 44.74533 44 43 C 44 41.42844 44.571904 40.27402 45.59375 39.40625 C 46.217398 38.876637 47.039049 38.486746 48 38.25 z M 52 52.9375 C 52.953108 53.305198 53.803647 53.646372 54.40625 54.03125 C 55.550461 54.76215 56 55.2546 56 57 C 56 58.5715 55.428104 59.6947 54.40625 60.5625 C 53.782597 61.092132 52.96095 61.504187 52 61.75 L 52 52.9375 z " transform="translate(0,952.36218)" fill="#000000" fill-opacity="1" stroke="none" marker="none" visibility="visible" display="inline" overflow="visible"></path></g></svg>