<svg xmlns="http://www.w3.org/2000/svg" xmlns:xlink="http://www.w3.org/1999/xlink" version="1.1" x="0px" y="0px" viewBox="0 0 100 100" enable-background="new 0 0 100 100" xml:space="preserve"><path d="M82.535,12.567c-0.02,0.001-0.037,0.004-0.055,0.006l-27.521,3.574c-0.74-1.182-1.826-2.122-2.959-2.63V8.112  c0-1.233-1.268-2.236-2.5-2.236c-1.233,0-2.5,1.003-2.5,2.236v5.405c-1.581,0.708-3.08,2.247-3.646,4.137l-26.822,3.483  c-1.29,0.139-2.235,1.292-2.115,2.588c0.115,1.231,1.134,2.16,2.37,2.16c0.072,0,0.146-0.003,0.22-0.01  c0.019-0.001,0.037-0.004,0.056-0.006l27.02-3.509c0.739,1.151,1.806,2.066,2.917,2.565v5.405c0,0.798,0.51,1.494,1.141,1.89  C47.998,32.452,48,32.724,48,33.017V87h-5.441c-0.889,0-1.61,0.869-1.61,1.758c0,0.031,0.008,0.242,0.01,0.242h-3.615  c-1.304,0-2.325,1.014-2.325,2.5S36.04,94,37.344,94h24.135c1.306,0,2.326-1.014,2.326-2.5S62.782,89,61.477,89H57.07  c0.002,0,0.01-0.211,0.01-0.242c0-0.889-0.721-1.758-1.609-1.758H51V33.017c0-0.33,0.07-0.632-0.105-0.881  C51.455,31.729,52,31.074,52,30.331v-5.405c1.561-0.699,3.045-2.207,3.627-4.064l27.385-3.557c1.288-0.138,2.235-1.292,2.114-2.588  C85.005,13.413,83.873,12.445,82.535,12.567z"></path><path d="M92.674,65.765h-0.572l-1.107-5.422c2.172-2.451,3.503-5.586,3.503-9.11c0-5.45-3.163-10.124-7.742-12.397l-4.661-23.777  c-0.139-0.71-0.762-1.214-1.486-1.214c-0.724,0-1.349,0.519-1.486,1.229l-4.66,23.8c-4.579,2.273-7.742,6.988-7.742,12.438  c0,3.52,1.327,6.57,3.492,9.021l-1.09,5.432h-0.582c-1.305,0-2.326,1.514-2.326,3s1.021,3,2.326,3h4.408  c-0.002,0-0.01-0.291-0.01-0.258c0,0.889,0.721,1.258,1.608,1.258h12.911c0.891,0,1.609-0.369,1.609-1.258  c0-0.033-0.008,0.258-0.01,0.258h3.615c1.307,0,2.328-1.514,2.328-3S93.979,65.765,92.674,65.765z M72.807,62.845  c2.226,1.516,4.91,2.381,7.801,2.381c2.89,0,5.574-0.852,7.8-2.368l0.586,2.907H72.219L72.807,62.845z M80.605,23.251l2.832,14.462  c-0.914-0.19-1.86-0.292-2.832-0.292c-0.971,0-1.916,0.102-2.832,0.292L80.605,23.251z M80.605,40.452  c5.987,0,10.859,4.872,10.859,10.86c0,5.987-4.872,10.859-10.859,10.859s-10.858-4.872-10.858-10.859  C69.747,45.324,74.618,40.452,80.605,40.452z"></path><path d="M75.137,53.765h10.939c1.195,0,2.165-1.305,2.165-2.5c0-1.195-0.97-2.5-2.165-2.5H75.137c-1.195,0-2.164,1.305-2.164,2.5  C72.973,52.46,73.939,53.765,75.137,53.765z"></path><path d="M31.752,76.831c-0.01-0.133-0.027-0.271-0.058-0.373l-1.314-6.772c2.183-2.455,3.521-5.675,3.521-9.21  c0-5.455-3.169-10.173-7.757-12.443l-4.645-23.721c-0.14-0.711-0.763-1.224-1.487-1.224c-0.724,0-1.348,0.513-1.486,1.224  l-4.645,23.721c-4.587,2.27-7.757,6.988-7.757,12.443c0,3.54,1.342,6.766,3.53,9.221l-1.355,6.869  c-0.015,0.066-0.015,0.199-0.019,0.199H7.326c-1.305,0-2.326,1.014-2.326,2.5s1.021,2.5,2.326,2.5h4.408  c-0.002,0-0.01,0.211-0.01,0.244c0,0.887,0.721,1.756,1.609,1.756h12.912c0.889,0,1.608-0.869,1.608-1.756  c0-0.033-0.008-0.244-0.01-0.244h3.616c1.305,0,2.326-0.996,2.326-2.482C33.787,77.909,32.913,76.993,31.752,76.831z M28.398,75.765  H11.624l0.688-3.688c2.205,1.475,4.852,2.312,7.698,2.312c2.847,0,5.494-0.826,7.699-2.301L28.398,75.765z M20.011,32.486  l2.818,14.39c-0.911-0.188-1.853-0.289-2.818-0.289c-0.965,0-1.907,0.1-2.818,0.289L20.011,32.486z M20.011,49.617  c5.988,0,10.859,4.873,10.859,10.859c0,5.989-4.871,10.859-10.859,10.859c-5.987,0-10.859-4.87-10.859-10.859  C9.151,54.489,14.023,49.617,20.011,49.617z"></path><path d="M14.541,62.765H18v3.182c0,1.195,0.806,2.164,2,2.164c1.195,0,2-0.969,2-2.164v-3.182h3.481  c1.195,0,2.164-0.807,2.164-2.001s-0.968-1.999-2.164-1.999H22v-3.758c0-1.195-0.805-2.166-2-2.166c-1.194,0-2,0.971-2,2.166v3.758  h-3.459c-1.195,0-2.165,0.805-2.165,1.999S13.346,62.765,14.541,62.765z"></path></svg>