<svg xmlns:dc="http://purl.org/dc/elements/1.1/" xmlns:cc="http://creativecommons.org/ns#" xmlns:rdf="http://www.w3.org/1999/02/22-rdf-syntax-ns#" xmlns:svg="http://www.w3.org/2000/svg" xmlns="http://www.w3.org/2000/svg" xmlns:sodipodi="http://sodipodi.sourceforge.net/DTD/sodipodi-0.dtd" xmlns:inkscape="http://www.inkscape.org/namespaces/inkscape" preserveAspectRatio="xMidYMid" viewBox="0 0 54 63" version="1.1" x="0px" y="0px"><defs><style>

      .cls-3 {
        fill: #000000;
      }
    </style></defs><path style="" d="M 9.5 0 C 4.253 0 2.4669448e-017 4.253 0 9.5 L 0 53.5 C 0 58.747 4.253 63 9.5 63 L 44.5 63 C 49.747 63 54 58.747 54 53.5 L 54 9.5 C 54 4.253 49.747 2.4669448e-017 44.5 0 L 9.5 0 z M 9.5 3 L 44.5 3 C 48.09 3 51 5.91 51 9.5 L 51 53.5 C 51 57.09 48.09 60 44.5 60 L 9.5 60 C 5.91 60 3 57.09 3 53.5 L 3 9.5 C 3 5.91 5.91 3 9.5 3 z M 9.5625 11 C 8.7345 11 8.0625 11.672 8.0625 12.5 C 8.0625 13.328 8.7345 14 9.5625 14 L 45.5625 14 C 46.3905 14 47.0625 13.328 47.0625 12.5 C 47.0625 11.672 46.3905 11 45.5625 11 L 9.5625 11 z M 9.5625 19 C 8.7345 19 8.0625 19.672 8.0625 20.5 C 8.0625 21.328 8.7345 22 9.5625 22 L 45.5625 22 C 46.3905 22 47.0625 21.328 47.0625 20.5 C 47.0625 19.672 46.3905 19 45.5625 19 L 9.5625 19 z M 27.5625 27.59375 C 25.8435 27.59375 24.32025 27.95025 23.03125 28.65625 C 21.74125 29.36125 20.76475 30.2375 20.09375 31.3125 C 19.42075 32.3875 19.09375 33.452 19.09375 34.5 C 19.09375 35.007 19.29375 35.47125 19.71875 35.90625 C 20.14175 36.34225 20.66425 36.5625 21.28125 36.5625 C 22.32925 36.5625 23.0625 35.96475 23.4375 34.71875 C 23.8335 33.52775 24.301 32.612 24.875 32 C 25.447 31.389 26.3495 31.09375 27.5625 31.09375 C 28.5995 31.09375 29.43675 31.394 30.09375 32 C 30.74975 32.607 31.0625 33.33575 31.0625 34.21875 C 31.0625 34.67075 30.965 35.08375 30.75 35.46875 C 30.535 35.85475 30.28275 36.21725 29.96875 36.53125 C 29.65375 36.84525 29.1425 37.3195 28.4375 37.9375 C 27.6325 38.6425 26.974 39.237 26.5 39.75 C 26.025 40.262 25.662 40.85425 25.375 41.53125 C 25.088 42.21025 24.9375 43.0115 24.9375 43.9375 C 24.9375 44.6765 25.14125 45.251 25.53125 45.625 C 25.92325 46.001 26.39575 46.1875 26.96875 46.1875 C 28.07175 46.1875 28.7275 45.61575 28.9375 44.46875 C 29.0585 43.92875 29.15775 43.5275 29.21875 43.3125 C 29.27975 43.0975 29.35775 42.9015 29.46875 42.6875 C 29.57875 42.4725 29.74275 42.22775 29.96875 41.96875 C 30.19375 41.70975 30.5 41.4045 30.875 41.0625 C 32.231 39.8505 33.1645 38.98175 33.6875 38.46875 C 34.2115 37.95675 34.6825 37.36225 35.0625 36.65625 C 35.4415 35.95125 35.625 35.1245 35.625 34.1875 C 35.625 32.9965 35.293 31.889 34.625 30.875 C 33.958 29.861 33.00525 29.05875 31.78125 28.46875 C 30.55625 27.88075 29.1605 27.59375 27.5625 27.59375 z M 27.15625 47.6875 C 26.45125 47.6875 25.86 47.93325 25.375 48.40625 C 24.89 48.88025 24.65625 49.46125 24.65625 50.15625 C 24.65625 50.93925 24.90525 51.53375 25.40625 51.96875 C 25.90825 52.40475 26.48325 52.625 27.15625 52.625 C 27.80725 52.625 28.379 52.40875 28.875 51.96875 C 29.372 51.52675 29.625 50.92825 29.625 50.15625 C 29.625 49.46125 29.38025 48.88025 28.90625 48.40625 C 28.43225 47.93325 27.85125 47.6875 27.15625 47.6875 z " fill="#000000" fill-rule="evenodd"></path></svg>