<svg xmlns="http://www.w3.org/2000/svg" xmlns:xlink="http://www.w3.org/1999/xlink" version="1.1" x="0px" y="0px" viewBox="0 0 100 100" style="enable-background:new 0 0 100 100;" xml:space="preserve"><style type="text/css">
	.st0{fill:#FFFFFF;}
</style><path d="M91.8,72.3l-0.2-0.1c-4.6-2.6-8.1-7.5-9.4-9.6c8-4.3,12.8-10.9,12.8-17.9c0-12.6-15.1-22.8-33.6-22.8  c-6.9,0-13.3,1.4-18.6,3.8c-1.3-0.1-2.7-0.2-4.1-0.2C20.1,25.5,5,35.8,5,48.3c0,7,4.8,13.6,12.8,17.9c-1.3,2.1-4.8,7-9.4,9.6L8.2,76  c-0.4,0.3-0.6,0.7-0.5,1.2c0.1,0.5,0.5,0.8,1,0.9l0.2,0c0.5,0,1,0.1,1.5,0.1c8.1,0,15-6.5,16.8-8.3c3.7,0.9,7.5,1.3,11.4,1.3  c6.9,0,13.3-1.4,18.6-3.8c1.3,0.1,2.7,0.2,4.1,0.2c4,0,7.8-0.5,11.4-1.3c1.8,1.9,8.7,8.3,16.9,8.3c0.5,0,1,0,1.5-0.1l0.2,0  c0.5,0,0.9-0.4,1-0.9C92.4,73,92.2,72.6,91.8,72.3z M38.6,68.2c-3.9,0-7.8-0.5-11.4-1.4l-1.1-0.3l-0.7,0.8c0,0-0.1,0.1-0.1,0.1l0,0  c-0.9,0.9-5,5.1-10.3,6.9c3.9-3.8,6.1-7.9,6.1-8l0.6-1.5l-1.5-0.7c-7.7-3.8-12.3-9.7-12.3-15.9c0-10.8,13.3-19.6,29.8-19.9  c-6.2,4.1-10,9.9-10,16.2c0,10.2,9.9,18.9,23.6,21.8C47.4,67.6,43.1,68.2,38.6,68.2z M52.9,57.5c0,0.5-0.1,1-0.2,1.6  c-0.5,0.1-1.1,0.2-1.6,0.2c-0.5,0-1,0.1-1.4,0.1c-0.5,0-1,0-1.5-0.1c-0.5,0-1-0.1-1.6-0.2c-0.1-0.5-0.2-1.1-0.2-1.6  c0-0.5-0.1-1-0.1-1.4c0-0.5,0-1,0.1-1.5c0-0.5,0.1-1,0.2-1.6c0.5-0.1,1.1-0.1,1.6-0.2c0.5,0,1-0.1,1.5-0.1c0.5,0,1,0,1.4,0.1  c0.5,0.1,1,0.1,1.6,0.2c0.1,0.5,0.2,1.1,0.2,1.6c0,0.5,0.1,1,0.1,1.5C53,56.5,52.9,57,52.9,57.5z M57.3,43.7c-0.4,0.8-0.8,1.4-1.3,2  c-0.5,0.5-1.1,1-1.7,1.3c-0.6,0.4-1.1,0.6-1.6,0.8v3.2c-0.5,0.1-1,0.1-1.5,0.2c-0.5,0-0.9,0.1-1.3,0.1c-0.4,0-0.9,0-1.4-0.1  c-0.5,0-1-0.1-1.4-0.2v-6.6c0.6-0.1,1.2-0.2,1.8-0.3c0.6-0.2,1.1-0.4,1.6-0.6c0.5-0.3,0.8-0.6,1.1-1c0.3-0.4,0.4-0.9,0.4-1.4  c0-0.8-0.3-1.4-0.9-1.8c-0.6-0.4-1.4-0.6-2.4-0.6c-0.4,0-0.8,0-1.2,0c-0.3,0-0.7,0.1-1,0.2c-0.3,0.1-0.7,0.2-1.1,0.3  c-0.4,0.1-0.8,0.3-1.2,0.4c-0.1-0.3-0.3-0.7-0.4-1.1c-0.2-0.4-0.3-0.8-0.4-1.2c-0.1-0.4-0.2-0.8-0.3-1.3c-0.1-0.4-0.2-0.8-0.2-1.2  c0.7-0.2,1.3-0.4,1.8-0.6c0.6-0.2,1.1-0.3,1.6-0.4c0.5-0.1,1-0.2,1.5-0.2c0.5,0,1-0.1,1.6-0.1c2.9,0,5,0.7,6.4,1.9  c1.4,1.3,2.2,3.1,2.2,5.4C57.8,42.1,57.6,43,57.3,43.7z M74.7,63.9L74.7,63.9c-0.1-0.1-0.1-0.1-0.1-0.2l-0.7-0.8l-1.1,0.3  c-3.3,0.9-6.9,1.3-10.5,1.4c6.2-4.1,10-9.9,10-16.2c0-10.2-9.9-18.9-23.6-21.8c3.9-1.1,8.2-1.8,12.7-1.8c16.9,0,30.7,8.9,30.7,19.9  c0,6.2-4.6,12.1-12.3,15.9l-1.5,0.7l0.6,1.5c0,0,2.2,4.2,6.1,8C79.7,69,75.5,64.8,74.7,63.9z"></path></svg>