<svg xmlns="http://www.w3.org/2000/svg" xmlns:xlink="http://www.w3.org/1999/xlink" version="1.1" x="0px" y="0px" viewBox="0 0 100 100" enable-background="new 0 0 100 100" xml:space="preserve"><path d="M23.193,71.584c0,0-0.688-1.344-1.406-2.406s-1.678-1.562-2.516-1.875c-0.847-0.317-1.408-0.333-1.578,0.125  c-0.516,1.391-1.44,0.415-2.097,0.821c-0.625,0.387,0.3,1.491-0.56,1.929c-0.523,0.267-1.594-0.469-2.375,0.969  s-2.281,2.906-2.75,3.156s1.438,1,1.656,1.188s3.781-0.344,4.781,0.344s3.25,3.813,3.281,5.563s0.719,1.969,0.719,1.969  s0.781-0.031,0.656-0.688s-0.406-3.75-0.406-3.75l-0.509-0.095c0,0-0.17-0.435-0.335-0.812c-0.259-0.589-0.469-1.031,0.219-2.125  S23.193,71.584,23.193,71.584z M86.229,44.602c-0.711-0.118-2.402-0.428-3.029-0.807c-0.557-0.336-0.669-0.896-0.638-1.307  c-0.123-0.014-0.233-0.057-0.348-0.093c-0.002,0-0.005,0.001-0.007,0.001c-0.014,0-0.023-0.01-0.036-0.013  c-0.225-0.075-0.438-0.171-0.633-0.273c-0.165-0.087-0.321-0.169-0.459-0.214c-0.076,0.025-0.102,0.238-0.117,0.366  c-0.016,0.134-0.033,0.269-0.064,0.384c-0.08,0.299-0.498,0.606-1.174,1.084c-0.391,0.276-0.795,0.563-0.989,0.782  c-0.202,0.227-0.313,0.484-0.433,0.757c-0.146,0.333-0.296,0.678-0.615,0.978c-0.613,0.578-1.386,0.633-1.95,0.672  c-0.511,0.03-0.854-0.367-1.025-0.646c-0.281,0.218-0.662,0.678-0.805,1.048c-0.159,0.413-0.453,0.721-0.849,1.099  c4.182-0.342,9.301-0.958,13.04-2.049C86.049,45.776,86.109,45.169,86.229,44.602z M80.879,41.037  c-0.784-0.041-2.095,0.734-2.108,0.742c-0.073,0.043-0.166,0.048-0.241,0.01c-0.077-0.039-0.129-0.115-0.137-0.201l-0.07-0.758  l-1.186,0.203c-0.126,0.022-0.252-0.059-0.284-0.186l-0.153-0.613c-0.122,0.23-0.206,0.607-0.229,1.119  c-0.022,0.487-0.384,0.805-0.733,1.113c-0.262,0.23-0.533,0.469-0.701,0.792c-0.307,0.591-0.604,0.849-0.79,0.963  c-0.004,0.313,0.047,1.137,0.688,1.483c0.026,0.015,0.033,0.043,0.052,0.063c0.021,0.022,0.05,0.034,0.062,0.063  c0.002,0.006,0.249,0.589,0.63,0.589c0.009,0,0.018,0,0.026,0c0.635-0.045,1.196-0.117,1.644-0.537  c0.244-0.23,0.367-0.514,0.499-0.814c0.129-0.296,0.263-0.602,0.516-0.888c0.233-0.264,0.661-0.566,1.076-0.859  c0.369-0.262,0.927-0.656,0.979-0.808c0.025-0.093,0.037-0.202,0.051-0.312c0.035-0.293,0.071-0.596,0.304-0.744  c0.13-0.084,0.285-0.096,0.464-0.037c0.178,0.057,0.353,0.148,0.537,0.246l0.004,0.002C81.574,41.26,81.288,41.057,80.879,41.037z   M41.135,39.8l-10.86-1.316l-1.246,8.374l11.311,1.076L41.135,39.8z M65.346,46.077c0.006,0.077,0.01,0.163,0.011,0.254  c0.464,0.058,1.086,0.115,1.305,0.076c0.172-0.029,0.495-0.207,0.755-0.351c0.277-0.153,0.517-0.284,0.699-0.328  c0.193-0.046,0.533-0.487,0.559-0.794c0.043-0.517,0.356-0.834,0.931-0.942c0.17-0.033,0.316-0.555,0.334-1l-0.658-5.644  l-2.909,0.225c-0.094,0.118-0.198,0.209-0.317,0.247c-0.274,0.089-0.54,0.049-0.775-0.113c0.048,0.83,0.128,1.775,0.203,2.646  c0.127,1.476,0.19,2.258,0.139,2.499c-0.027,0.131-0.074,0.275-0.123,0.424c-0.087,0.266-0.206,0.63-0.116,0.752  c0.295,0.403,0.319,1.487-0.041,1.792C65.328,45.848,65.339,45.986,65.346,46.077z M64.354,49.329  c0.143-0.014,0.229-0.074,0.359-0.167c0.201-0.143,0.452-0.32,0.955-0.331c0.061-0.001,2.871-0.065,6.605-0.35  c0.1-0.098,0.2-0.195,0.291-0.281c0.428-0.406,0.737-0.699,0.876-1.06c0.166-0.43,0.562-0.937,0.93-1.232  c-0.542-0.499-0.624-1.258-0.627-1.639c-0.394-0.072-1.048-0.176-1.384-0.158c-0.313,0.016-0.681-0.158-1.06-0.346  c-0.307-0.153-0.619-0.297-0.908-0.346c-0.068,0.424-0.243,0.978-0.693,1.063c-0.409,0.077-0.506,0.253-0.526,0.494  c-0.038,0.455-0.488,1.129-0.941,1.237c-0.116,0.028-0.358,0.161-0.572,0.28c-0.323,0.178-0.657,0.361-0.911,0.406  c-0.077,0.013-0.179,0.018-0.294,0.018c-0.373,0-0.888-0.057-1.18-0.094c-0.025,0.067-0.051,0.134-0.093,0.201  c-0.108,0.174-0.209,0.459-0.306,0.734c-0.188,0.537-0.352,1.002-0.693,1.08c-0.04,0.009-0.08,0.013-0.119,0.013  c-0.212,0-0.424-0.118-0.646-0.243c-0.044-0.024-0.091-0.05-0.137-0.074c-0.002,0.034,0.005,0.06-0.001,0.099  c-0.036,0.238-0.157,0.47-0.293,0.704C63.415,49.348,64.058,49.355,64.354,49.329z M64.07,48.353  c0.088-0.057,0.241-0.496,0.333-0.758c0.106-0.301,0.215-0.611,0.354-0.834c0.124-0.199,0.107-0.426,0.091-0.645  c-0.019-0.236-0.039-0.503,0.17-0.679c0.112-0.121,0.135-0.876-0.041-1.115c-0.24-0.328-0.089-0.793,0.045-1.201  c0.043-0.132,0.086-0.26,0.11-0.373c0.038-0.182-0.061-1.335-0.148-2.353c-0.1-1.159-0.208-2.448-0.236-3.429  c-0.076-0.188-0.144-0.396-0.193-0.646c-0.031-0.155-0.061-0.331-0.086-0.522c-2.553,0.181-3.796,0.267-4.401,0.282  c0.068,0.108,0.142,0.213,0.222,0.311c0.557,0.678,0.832,1.33,0.755,1.79c-0.036,0.214-0.146,0.383-0.317,0.488  c-0.104,0.064-0.229,0.118-0.358,0.173c-0.421,0.18-0.679,0.313-0.679,0.771c0,0.481-0.22,0.796-0.413,1.074  s-0.347,0.497-0.307,0.864c0.044,0.414,0.416,0.908,0.744,1.345c0.319,0.425,0.595,0.792,0.631,1.128  c0.014,0.135,0.119,0.23,0.305,0.39c0.299,0.256,0.709,0.606,0.665,1.4c-0.027,0.481,0.083,0.551,0.324,0.701  c0.222,0.139,0.524,0.329,0.749,0.842c0.136,0.311,0.271,0.443,0.396,0.522c0.325-0.006,0.629,0.156,0.879,0.296  C63.789,48.246,64.009,48.356,64.07,48.353z M50.223,28.367c-0.002-0.098-0.003-0.195-0.005-0.297  c-0.015-0.868-0.034-1.949,0.003-2.536c0.021-0.341-0.039-0.777-0.107-1.284c-0.105-0.772-0.218-1.711-0.088-2.666  c-0.608,0.029-1.356,0.028-2.306-0.034c-5.03-0.33-4.343-0.045-7.163-0.325l-0.795,6.461C41.039,27.823,46.998,28.441,50.223,28.367  z M50.719,25.565c-0.035,0.566-0.016,1.637-0.001,2.497c0.012,0.67,0.021,1.199,0.005,1.385c-0.014,0.152,0.294,0.48,0.577,0.679  c0.067,0.047,0.107,0.124,0.107,0.205v3.209c0.95,0.082,4.699,0.362,7.383,0.017c-0.025-0.06-0.054-0.112-0.09-0.146  c-0.04-0.037-0.076-0.05-0.147-0.049c-0.444,0.029-0.8-0.355-1.165-0.76c-0.188-0.211-0.385-0.428-0.606-0.607  c-0.696-0.563-0.692-1.299-0.688-2.229l0.001-0.246c0-0.647,0.304-0.981,0.548-1.249c0.19-0.209,0.327-0.359,0.327-0.626  c0-0.716,0.45-1.126,1.055-1.407c-0.049-0.07,0-0.193,0.237-0.479c0.729-0.875,2.479-1.624,2.521-2.291s-2.063-0.084-2.896-0.542  s-3.417,0.063-4.5-1.25c-0.835-1.013-0.555-0.329-2.853-0.125c-0.146,0.915-0.036,1.823,0.074,2.634  C50.681,24.716,50.743,25.176,50.719,25.565z M70.43,42.912c0.378,0.056,0.756,0.237,1.093,0.405  c0.304,0.15,0.606,0.306,0.808,0.296c0.453-0.031,1.365,0.138,1.64,0.191c0.081-0.046,0.332-0.219,0.622-0.776  c0.211-0.406,0.531-0.688,0.814-0.938c0.342-0.301,0.552-0.498,0.563-0.76c0.04-0.878,0.241-1.428,0.583-1.678l-1.014-4.046  c-0.705,0.49-1.418,0.92-1.944,1.067c-0.102,0.028-0.183,0.034-0.268,0.044l-3.477,1.207L70.43,42.912z M39.7,28.182l-0.753,6.119  l11.286,1.131l0.049-1.672c0.005-0.135,0.115-0.241,0.25-0.241h0.375v-3.062c-0.24-0.186-0.721-0.615-0.683-1.054  c0.007-0.083,0.008-0.282,0.005-0.537c-0.181,0.004-0.358,0.009-0.554,0.009C46.326,28.875,40.911,28.313,39.7,28.182z   M67.845,30.154c-0.432,0.097-1.5,0.459-1.166,3.291c0.204,1.741,0.163,2.911-0.047,3.606l2.85-0.22  c0.155-0.025,0.252,0.088,0.268,0.221l0.042,0.364l2.885-1.002c-0.149-0.36-0.021-0.985,0.294-1.698  c0.563-1.271-0.063-2.688-0.479-3.021c-0.418-0.333-0.938,0.834-1.271-0.25c-0.334-1.083-0.753-3.052-1.859-2.802  C68.392,28.862,68.985,29.896,67.845,30.154z M62.583,27.656c0.909,0.072,1.101,0.273,1.185,0.799  c0.014,0.088,0.029,0.188,0.065,0.301l0.031,0.098c0.154,0.492,0.256,0.796,0.941,0.706c-0.063-0.15-0.089-0.308,0.019-0.53  c0.354-0.729,2.667-1.375,3.292-1.375s0.854-0.5,0.813-1c-0.042-0.5-1.709-0.229-3.167-0.396c-1.458-0.166-2.125-0.729-2.583-1.25  c-0.459-0.521-1.584,0.646-2.209,1.188c-0.107,0.094-0.211,0.189-0.314,0.283C60.88,27.041,61.463,27.566,62.583,27.656z   M38.924,30.396L28.484,28.68l-0.144,0.79l-0.842,5.489l0,0l-0.337,2.394l2.941,0.606l11.334,1.374  c0.135,0.017,0.231,0.138,0.219,0.272l-0.143,1.463l10.323,0.502c-0.178-0.193-0.343-0.396-0.492-0.605  c-0.003-0.003-0.004-0.007-0.006-0.01c-0.218-0.305-0.389-0.621-0.43-0.936c-0.106-0.822-0.535-3.376-0.654-4.084l-11.368-1.139  l-0.465,3.775c-0.016,0.126-0.123,0.219-0.248,0.219c-0.01,0-0.021,0-0.03-0.002c-0.138-0.017-0.234-0.142-0.218-0.279l0.491-3.99  c0-0.008-0.008-0.014-0.007-0.021c0.001-0.011,0.011-0.016,0.013-0.025L38.924,30.396z M77.085,39.69  c0.002,0.007-0.004,0.013-0.002,0.02l0.198,0.792l7.521-1.293c0.025-0.002,0.262-0.028,0.528,0.027  c0.262-0.311,0.405-0.667,0.356-0.939c-0.026-0.148-0.104-0.254-0.231-0.315c-0.229-0.108-0.379-0.292-0.433-0.527  c-0.115-0.497,0.223-1.095,0.51-1.495c-0.011-0.004-0.028-0.009-0.038-0.014c-0.26-0.112-0.542-0.38-0.815-0.639  c-0.167-0.158-0.375-0.355-0.461-0.391c-0.316-0.047-3.718,0.635-5.409,1.044c-1.355,0.327-1.799-0.431-2.154-1.04  c-0.019-0.031-0.039-0.061-0.058-0.092c-0.199,0.155-0.406,0.312-0.621,0.469l1.098,4.381C77.076,39.684,77.083,39.685,77.085,39.69  z M59.439,57.615c-0.06-1.829,0.742-3.181,1.288-4.086c0.22-0.364,0.409-0.678,0.432-0.854c0.05-0.4,0.201-0.693,0.348-0.978  c0.067-0.13,0.13-0.261,0.186-0.397h-0.504c-0.138,0-0.25-0.111-0.25-0.25v-0.594H53.97v0.972l0.185,0.144  c0.062,0.047,0.097,0.12,0.097,0.197v4.514c0.242,0.082,0.41,0.141,0.41,0.141c0.106,0.037,0.176,0.142,0.167,0.254  c-0.001,0.012-0.031,0.436-0.066,0.991L59.439,57.615z M78.692,35.474c0.052-0.013,5.244-1.22,5.716-1.021  c0.164,0.067,0.341,0.23,0.615,0.49c0.22,0.208,0.492,0.467,0.671,0.545c0.104,0.045,0.282,0.094,0.496,0.154  c0.514,0.146,1.167,0.336,1.606,0.635c0.021-0.059,0.049-0.114,0.08-0.169l-1.899-6.299c-0.007-0.023-0.011-0.048-0.011-0.072  v-2.886c-1.26,0.319-2.494,0.635-2.913,1.011c-0.813,0.729-0.759,2.253-3.584,3.438c-1.291,0.542-0.875,1.876-1.708,2.583  c-0.193,0.165-0.463,0.389-0.77,0.635c0.03,0.051,0.064,0.099,0.095,0.15C77.429,35.252,77.696,35.715,78.692,35.474z   M87.988,31.462c-0.173-1.034,0.313-2.775,0.479-3.376c0.073-0.265-0.062-0.623-0.205-1.002c-0.093-0.246-0.18-0.52-0.248-0.802  c-0.455,0.153-0.994,0.299-1.548,0.44v2.979l0.641,2.126L87.988,31.462z M61.846,50.71c0.059-0.543,0.334-0.994,0.576-1.392  c0.17-0.277,0.329-0.539,0.363-0.76c0.014-0.089,0.006-0.116,0.006-0.118c-0.005,0.007-0.045-0.014-0.079-0.029  c-0.193-0.092-0.517-0.245-0.784-0.855c-0.162-0.37-0.353-0.49-0.556-0.617c-0.341-0.213-0.598-0.434-0.559-1.152  c0.031-0.547-0.223-0.764-0.49-0.993c-0.207-0.177-0.441-0.379-0.478-0.717c-0.021-0.199-0.281-0.545-0.532-0.88  c-0.367-0.488-0.783-1.042-0.843-1.593c-0.023-0.221,0.009-0.401,0.06-0.566h-6.491c0.187,0.216,0.383,0.426,0.56,0.607  c0.014,0.014,0.022,0.023,0.035,0.037l0.001,0.001c0.354,0.364,0.547,0.573,0.605,0.763c0.034,0.111,0.053,0.24,0.071,0.379  c0.049,0.356,0.099,0.725,0.545,1.016c0.07,0.047,0.113,0.125,0.113,0.21v5.906h7.219c0.138,0,0.25,0.111,0.25,0.25V50.8h0.386  C61.829,50.768,61.842,50.745,61.846,50.71z M40.838,47.972l12.632,0.75V44.18c-0.533-0.404-0.603-0.912-0.653-1.289  c-0.015-0.108-0.027-0.211-0.055-0.299c-0.026-0.081-0.229-0.296-0.424-0.497l-10.873-0.529L40.838,47.972z M88.961,28.18  c-0.419,1.503-0.564,2.529-0.473,3.137c0.298-0.059,0.813-0.158,1.343-0.256c0.372-0.068,0.675-0.18,0.969-0.289  c0.218-0.08,0.433-0.148,0.653-0.201c0.015-0.041,0.026-0.083,0.046-0.125c-0.43-0.078-0.952-0.324-1.171-0.937  c-0.231-0.647-0.995-2.673-1.367-3.655c-0.012,0.009-0.02,0.021-0.032,0.029c-0.12,0.076-0.273,0.148-0.442,0.221  c0.06,0.271,0.146,0.541,0.244,0.805C88.903,27.365,89.066,27.798,88.961,28.18z M45.633,54.671  c0.554,0.174,1.182,0.371,1.742,0.693c0.707,0.405,1.218,0.432,1.712,0.457c0.286,0.015,0.558,0.028,0.845,0.113  c0.321,0.097,0.883,0.017,1.428-0.061c0.585-0.084,1.137-0.164,1.513-0.047c0.254,0.078,0.577,0.185,0.879,0.285v-4.222  l-0.185-0.144c-0.062-0.047-0.097-0.12-0.097-0.197v-2.327l-12.921-0.767c-0.003-0.001-0.006-0.001-0.009-0.001l-1.468-0.14  l-0.114,1.091l5.318,0.552c0.134,0.014,0.232,0.13,0.224,0.264l-0.242,3.865C44.556,54.332,45.08,54.497,45.633,54.671z   M65.019,30.031c-0.158,0.027-0.305,0.044-0.432,0.044c-0.787,0-1.018-0.487-1.2-1.072l-0.03-0.096  c-0.045-0.141-0.065-0.265-0.082-0.373c-0.042-0.263-0.053-0.325-0.73-0.38c-1.262-0.101-1.975-0.684-2.295-1.342  c-0.355,0.251-0.711,0.338-1.112-0.075c-0.118-0.122-0.243-0.194-0.368-0.252c-0.936,0.303-1.299,0.628-1.299,1.158  c0,0.46-0.243,0.728-0.457,0.962c-0.225,0.246-0.418,0.459-0.418,0.913l-0.001,0.249c-0.004,0.858-0.007,1.426,0.502,1.838  c0.253,0.205,0.471,0.447,0.664,0.66c0.283,0.314,0.558,0.584,0.764,0.598c0.193-0.017,0.379,0.051,0.52,0.184  c0.192,0.18,0.269,0.449,0.304,0.678c0,0.003,0.004,0.004,0.004,0.008c0,0.002-0.002,0.004-0.002,0.006  c0.019,0.125,0.027,0.239,0.027,0.312c0,0.155,0.124,0.86,0.437,1.55c0.585-0.024,2.85-0.177,4.601-0.3  c-0.124-1.327-0.085-3.097,0.432-4.146C65.112,30.609,65.102,30.281,65.019,30.031z M55.632,34.229c-2.275,0-4.323-0.193-4.488-0.21  h-0.369l-0.055,1.696c0.02,0.085,0.562,3.277,0.686,4.24c0.023,0.182,0.128,0.381,0.257,0.582h7.112  c0.03-0.046,0.061-0.093,0.091-0.137c0.174-0.249,0.323-0.464,0.323-0.788c0-0.813,0.592-1.063,0.983-1.229  c0.105-0.045,0.207-0.088,0.292-0.14c0.029-0.019,0.07-0.054,0.086-0.146c0.038-0.23-0.108-0.732-0.648-1.389  c-0.769-0.938-1.025-2.36-1.025-2.659v-0.002C57.865,34.18,56.726,34.229,55.632,34.229z M23.456,22.454  c0.683,0.839,1.532,1.882,0.947,2.515c-0.233,0.254-0.54,0.623-0.507,0.906c0.017,0.137,0.113,0.262,0.296,0.383  c0.414,0.276,0.559,0.673,0.697,1.056c0.147,0.406,0.287,0.79,0.752,1.075c0.632,0.389,1.149,0.459,1.564,0.518  c0.216,0.029,0.402,0.055,0.565,0.12l0.132,0.053l0.133-0.73c0.025-0.134,0.146-0.228,0.287-0.202L38.985,29.9l0.246-2.001  c0-0.008-0.007-0.014-0.006-0.021c0.001-0.009,0.01-0.014,0.012-0.022l0.822-6.683c-0.061-0.007-0.111-0.012-0.174-0.019  c-3.224-0.352-11.51-1.645-16.452-2.672c-0.361,1.337-0.758,2.99-0.227,3.662L23.456,22.454z M29.781,38.403l-2.95-0.608  c-0.129-0.027-0.215-0.149-0.197-0.279l0.333-2.37c-0.643-0.071-2.427-0.28-4.45-0.615l-2.233,10.984l8.249,1.279L29.781,38.403z   M22.023,34.447c-1.517-0.263-3.119-0.593-4.449-0.988c-1.7-0.34-3.247-0.709-4.636-1.076c-0.13,0.36-0.475,1.324-1.295,3.666  c-0.819,2.336-0.683,2.475-0.354,2.811c0.137,0.14,0.308,0.313,0.479,0.605c0.563,0.965,4.877,7.633,6.32,9.833  c0.051-0.211,0.108-0.359,0.161-0.484c0.085-0.203,0.136-0.324,0.095-0.705c-0.02-0.188,0.024-0.781,0.345-1.035  c0.146-0.114,0.325-0.143,0.503-0.078c0.132,0.047,0.216,0.064,0.268,0.07l0.279-1.375c0-0.002-0.002-0.004-0.002-0.008  c0.001-0.003,0.005-0.004,0.005-0.008L22.023,34.447z M79.356,52.347c-0.5,0.08-1.256,0.205-1.778-0.152  c-0.482-0.331-2.293-0.158-2.937,0.281c-0.272,0.186-0.587,0.247-0.934,0.273c0.231,0.242,0.581,0.487,0.886,0.697  c0.475,0.324,0.85,0.581,0.93,0.883c0.049,0.184,0.212,0.3,0.473,0.475c0.18,0.12,0.383,0.256,0.563,0.451  c0.154,0.166,0.341,0.297,0.521,0.424c0.279,0.195,0.543,0.381,0.679,0.679c0.091,0.2,0.389,0.801,0.766,1.281  c0.794-1.104,1.973-1.601,2.549-2.298c0.273-0.33,0.642-0.794,1.04-1.288c-1.044-0.85-2.184-1.703-2.414-1.755  C79.633,52.3,79.506,52.322,79.356,52.347z M85.291,42.396l-0.709-2.642l-5.766,0.99l0.039,0.416  c0.481-0.251,1.359-0.654,2.049-0.624c1.058,0.053,1.388,0.955,1.51,1.408c0.136,0.037,0.273,0.061,0.417,0.044  c0.083-0.011,0.168,0.022,0.222,0.089c0.055,0.064,0.071,0.153,0.046,0.234c-0.009,0.027-0.209,0.711,0.359,1.055  c0.513,0.31,2.063,0.611,2.89,0.748c0.154-0.586,0.324-1.091,0.431-1.457l-1.262-0.078C85.409,42.574,85.318,42.5,85.291,42.396z   M86.164,46.871c-2.94,0.849-6.7,1.41-10.198,1.778c-0.141,0.193-0.766,1.018-1.521,1.376c-0.41,0.195-0.669,0.503-0.919,0.8  c-0.199,0.235-0.387,0.459-0.64,0.622c-0.348,0.225-0.574,0.503-0.829,0.907c0.419-0.061,0.799-0.075,1.125-0.082  c0.502-0.012,0.897-0.02,1.178-0.211c0.757-0.515,2.801-0.758,3.501-0.281c0.356,0.246,0.993,0.141,1.414,0.072  c0.183-0.029,0.338-0.053,0.444-0.053c0.35,0,1.603,0.958,2.709,1.864c0.672-0.826,1.389-1.677,1.895-2.136  c0.896-0.813,2.855-2.229,2.043-4.02C86.273,47.304,86.211,47.089,86.164,46.871z M79.407,66.362  c-0.58-1.552-1.267-3.137-1.548-4.691c-1.352,0.541-5.336,0.973-5.796,0.973c-0.484,0-0.756-0.047-1.025-0.408l-4.194,0.371  l0.683,1.048c0.312-0.077,0.579-0.188,0.86-0.313c0.792-0.354,1.813,1.375,2.813,1.396s1.062-1.334,2.146-0.709  s2.479,2.042,2.354,3.125c-0.125,1.084,0.063,2.271,0.854,2.896c0.791,0.625,0.645,1.021,1.604,2.084s1.125,0.625,1.125,1.521  s0.438,0.875,1.209,0.438c0.771-0.438,1.188-1.376,1.021-3.042S80.303,68.759,79.407,66.362z M78.254,58.093  c-0.458-0.527-0.813-1.228-0.949-1.528c-0.079-0.175-0.279-0.313-0.511-0.476c-0.192-0.136-0.41-0.289-0.602-0.494  c-0.141-0.152-0.311-0.266-0.475-0.375c-0.284-0.191-0.577-0.388-0.677-0.762c-0.033-0.123-0.452-0.41-0.729-0.6  c-0.46-0.316-0.959-0.672-1.199-1.084c-0.524,0.012-1.114,0.034-1.815,0.264c-0.285,0.093-0.764,0.17-1.359,0.236  c0.104,0.705,0.314,1.52,0.508,2.253c0.188,0.72,0.353,1.341,0.368,1.699c0.013,0.296,0.136,0.478,0.266,0.671  c0.144,0.213,0.306,0.454,0.264,0.807c-0.016,0.137-0.061,0.326-0.114,0.55c-0.146,0.606-0.365,1.524-0.093,2.132  c0.34,0.758,0.418,0.758,0.928,0.758c0.608,0,4.822-0.518,5.722-0.979c-0.08-0.672-0.081-1.338,0.06-1.989  C77.936,58.756,78.084,58.41,78.254,58.093z M66.183,62.284c0.038-0.079,0.115-0.132,0.202-0.14l4.375-0.386  c-0.026-0.057-0.053-0.106-0.081-0.17c-0.342-0.762-0.098-1.779,0.063-2.451c0.048-0.2,0.09-0.369,0.104-0.492  c0.019-0.161-0.05-0.271-0.183-0.469c-0.147-0.219-0.331-0.492-0.351-0.929c-0.013-0.305-0.178-0.931-0.353-1.593  c-0.198-0.754-0.414-1.593-0.521-2.33c-1.178,0.107-2.698,0.178-4.226,0.223l-0.143,10.037c0.844,0.158,1.439,0.193,1.912,0.153  l-0.787-1.208C66.149,62.456,66.144,62.363,66.183,62.284z M87.728,33.884l0.55,1.823c0.536-0.325,1.29-0.643,2.031-0.939  l-0.488-1.477L87.728,33.884z M20.021,26.501l-0.052,0.077c-0.285,0.427-0.816,1.221-0.729,1.527  c0.108,0.381-0.091,0.955-0.321,1.619c-0.088,0.251-0.176,0.504-0.24,0.736c-0.175,0.623-0.576,2.029-0.734,2.583  c3.251,0.929,7.988,1.485,9.095,1.606l0.777-5.067l-0.231-0.093c-0.106-0.043-0.265-0.064-0.448-0.09  c-0.438-0.061-1.036-0.143-1.758-0.586c-0.613-0.377-0.798-0.883-0.96-1.33c-0.122-0.336-0.228-0.625-0.505-0.811  c-0.308-0.205-0.48-0.453-0.515-0.739c-0.058-0.48,0.289-0.929,0.636-1.304c0.29-0.315-0.497-1.283-0.968-1.861l-0.254-0.314  c-0.634-0.803-0.34-2.312,0.131-4.076c-0.395-0.084-0.769-0.167-1.106-0.246l-1.432,5.885C20.411,24.294,20.415,25.91,20.021,26.501  z M91.949,31.592c-0.248-0.197-0.395-0.365-0.471-0.518c-0.163,0.045-0.328,0.101-0.506,0.166c-0.299,0.111-0.637,0.236-1.052,0.313  c-0.741,0.137-1.452,0.277-1.569,0.3l-1.099,0.456l0.33,1.096l3.537-1.002c0.08-0.021,0.162-0.004,0.224,0.045  c0.025,0.021,0.568,0.483,0.542,1.678c0.373-0.165,0.669-0.317,0.813-0.45C93.241,33.175,92.949,32.383,91.949,31.592z   M85.584,39.963c-0.086-0.195-0.32-0.244-0.498-0.256l0.641,2.386l1.158,0.071c0.043-0.338,0.044-0.723,0.067-1.116  C86.526,40.832,85.776,40.402,85.584,39.963z M95.22,24.3c-0.813-1.042-1.375-1.542-1.708-2.583  c-0.333-1.042-1.167-1.813-1.813-1.521c-0.646,0.292-1.834,0.834-1.792,1.792c0.036,0.821,0.157,2.541-0.555,3.489  c0.331,0.875,1.196,3.164,1.446,3.864c0.186,0.519,0.697,0.617,0.943,0.636c0.029-0.064,0.059-0.128,0.082-0.197  c0.229-0.688,0.021-1.25,0.875-1.854s0.729-1.354,1.563-1.667S96.032,25.342,95.22,24.3z M87.726,36.869  c-0.259-0.346-1.143-0.596-1.671-0.746c-0.005-0.001-0.009-0.002-0.015-0.004c-0.386,0.496-0.591,0.962-0.53,1.223  c0.021,0.086,0.07,0.145,0.161,0.188c0.274,0.131,0.455,0.372,0.509,0.679c0.069,0.393-0.078,0.84-0.383,1.242  c0.098,0.078,0.187,0.176,0.246,0.311c0.093,0.213,0.539,0.517,0.967,0.751c0.076-0.458,0.234-0.899,0.606-1.255  c0.592-0.565,0.151-1.548,0.112-2.387C87.728,36.87,87.727,36.871,87.726,36.869z M71.143,52.562  c0.085-0.027,0.163-0.042,0.246-0.064c0.346-0.591,0.66-1.104,1.227-1.47c0.19-0.123,0.354-0.318,0.528-0.524  c0.271-0.322,0.578-0.688,1.087-0.929c0.407-0.194,0.781-0.564,1.034-0.854c-0.976,0.097-1.925,0.18-2.821,0.249  c-0.033,0.015-0.063,0.04-0.099,0.04c-0.024,0-0.044-0.021-0.067-0.028c-3.734,0.284-6.539,0.348-6.6,0.35  c-0.349,0.008-0.5,0.115-0.676,0.239c-0.153,0.108-0.327,0.231-0.604,0.257c-0.17,0.015-0.437,0.02-0.714,0.02  c-0.382,0-0.778-0.009-0.987-0.015c-0.17,0.292-0.318,0.598-0.354,0.933c-0.055,0.505-0.234,0.854-0.393,1.161  c-0.138,0.268-0.257,0.499-0.296,0.812c-0.015,0.117-0.062,0.244-0.125,0.381c1.247-0.013,2.397-0.034,3.437-0.063  c0.001,0,0.001-0.002,0.002-0.002h0.004c0.001,0,0.001,0.001,0.002,0.001c1.978-0.056,3.553-0.14,4.648-0.249  C70.346,52.735,70.863,52.653,71.143,52.562z M90.302,33.154l0.472,1.427c0.21-0.083,0.414-0.164,0.607-0.243  c0.072-0.821-0.147-1.243-0.272-1.412L90.302,33.154z M20.184,46.005l-0.26,1.275c0.002,0.057-0.053,0.152-0.142,0.214  c-0.16,0.108-0.399,0.099-0.755-0.028c-0.104,0.029-0.205,0.395-0.184,0.588c0.054,0.51-0.036,0.725-0.132,0.953  c-0.079,0.19-0.167,0.414-0.211,0.911c0.015,0.021,0.039,0.059,0.048,0.071c0.063,0.088,0.131,0.174,0.196,0.258  c0.241,0.307,0.469,0.596,0.407,0.916c-0.034,0.176-0.151,0.322-0.349,0.437c-0.191,0.11-0.265,0.309-0.368,0.622  c-0.098,0.299-0.209,0.636-0.505,0.908c-0.276,0.255-0.372,0.961-0.442,1.476c-0.029,0.212-0.06,0.392-0.095,0.554  c0.288,0.398,0.942,1.257,3.223,2.182c2.557,1.038,2.486,1.861,5.983,2.441l1.859-12.494L20.184,46.005z M12.491,53.175  c0.438,0.959-0.23,1.5,2.395,1.5c1.336,0,1.855,0.027,2.076,0.076c0.01-0.071,0.021-0.138,0.031-0.213  c0.089-0.656,0.19-1.399,0.6-1.776c0.199-0.185,0.281-0.433,0.368-0.696c0.106-0.322,0.227-0.688,0.593-0.898  c0.073-0.043,0.104-0.079,0.107-0.099c0.019-0.096-0.179-0.346-0.309-0.511c-0.071-0.092-0.145-0.185-0.212-0.279  c-0.367-0.52-6.145-9.435-6.803-10.561c-0.14-0.239-0.28-0.382-0.404-0.509c-0.52-0.527-0.643-0.814,0.237-3.324  c0.789-2.249,1.14-3.233,1.282-3.63c-3.589-0.973-5.977-1.902-6.753-2.22c-0.257,0.789-1.269,3.229-1.23,3.932  c0.041,0.75,0.542,1.5,0.396,2.146c-0.146,0.646-0.229,1.667,0.271,2.417s0.999,3.792,1.083,4.813s1.375,2.604,1.396,3.521  c0.02,0.916-0.521,1.271,1.625,2.771C11.386,51.134,12.054,52.216,12.491,53.175z M28.282,59.112c0,0,2.521,0.167,2.813,0.167  c0.008,0,0.024,0.018,0.033,0.021h6.283l1.163-11.031l-9.619-0.916l-1.862,12.506c0.304,0.045,0.625,0.088,0.98,0.129L28.282,59.112  z M11.47,21.807l0.004,0.092c0.01,0.244,0.026,0.653,0.25,0.836c0.125,0.102,0.319,0.131,0.581,0.09  c0.688-0.113,0.972,0.148,1.197,0.357c0.193,0.18,0.337,0.31,0.799,0.227c0.688-0.124,1.116-0.016,1.397,0.055  c0.232,0.059,0.276,0.061,0.333,0.018c0.401-0.293,0.563-0.27,3.271,0.129l0.666,0.098l1.384-5.689  c-2.011-0.479-5.925-1.43-6.976-1.78c-1.125-0.375-1.203-0.344-1.422,0s-0.25,0.672-0.906,0.594s-0.734-0.672-1.484-0.625  s-0.656,1.016-0.516,1.406s-0.021,0.813-0.097,1.203s0.097,0.906-0.185,1.578c-0.054,0.13-0.084,0.254-0.114,0.378  c0.12,0.04,0.252,0.086,0.363,0.121C10.906,21.18,11.443,21.354,11.47,21.807z M61.156,53.788c-0.54,0.895-1.355,2.246-1.214,4.055  c0.055,0.697,0.1,1.123,0.128,1.391c0.052,0.486,0.059,0.549-0.068,0.755c-0.051,0.081-0.135,0.216-0.266,0.583  c-0.507,1.42-0.453,1.709-0.424,1.764c0.142,0.01,1.727-0.005,3.12-0.035c0.069,0.002,0.14,0.027,0.188,0.078  c0.049,0.051,0.073,0.121,0.067,0.191c0,0.008-0.059,0.834,0.309,1.445c0.007,0.012,0.015,0.021,0.021,0.033  c0.132-0.35,0.583-0.632,1.556-0.53l0.142-9.956c-1.242,0.033-2.456,0.051-3.459,0.06C61.223,53.677,61.192,53.729,61.156,53.788z   M17.459,32.926c0.157-0.551,0.564-1.977,0.738-2.6c0.068-0.242,0.159-0.505,0.25-0.766c0.169-0.485,0.379-1.089,0.313-1.316  c-0.151-0.529,0.373-1.314,0.794-1.943l0.051-0.077c0.218-0.327,0.297-1.333,0.302-2.021l-0.679-0.1  c-2.441-0.359-2.671-0.386-2.902-0.219c-0.258,0.188-0.508,0.123-0.75,0.063c-0.27-0.068-0.604-0.15-1.188-0.047  c-0.713,0.125-0.997-0.139-1.227-0.352c-0.19-0.177-0.321-0.303-0.777-0.231c-0.406,0.067-0.736,0.001-0.978-0.196  c-0.397-0.324-0.421-0.896-0.434-1.203l-0.004-0.083c-0.049-0.125-0.661-0.321-1.107-0.466c-0.093-0.03-0.206-0.069-0.306-0.103  c-0.052,0.355-0.101,0.72-0.29,1.143c-0.344,0.766-1.813,4.188-2.813,5.359c-0.883,1.034-0.53,1.037-0.635,1.774  C6.756,29.931,11.044,31.623,17.459,32.926z M54.157,60.201c-0.026-0.622,0.113-2.716,0.159-3.368  c-0.344-0.118-1.101-0.377-1.593-0.529c-0.266-0.082-0.788-0.008-1.294,0.064c-0.595,0.086-1.214,0.174-1.641,0.047  c-0.23-0.069-0.461-0.081-0.729-0.095c-0.5-0.025-1.123-0.058-1.934-0.522c-0.515-0.295-1.089-0.476-1.645-0.65  c-0.694-0.219-1.295-0.408-1.66-0.783c-0.05-0.05-0.075-0.119-0.07-0.189l0.234-3.744l-5.081-0.527l-1.021,9.673  c-0.014,0.127-0.121,0.224-0.249,0.224h-6.024c0.537,0.685,1.371,1.875,2.192,2.479c1.188,0.875,0.479,2.542,2.479,3.375  s1.75-1.084,3.375-1.042s1.584,0.875,2.729,3.146c1.146,2.271,2.435,6.333,5.333,6.333c0.459,0,0.625-0.334,0.396-1.979  c-0.229-1.646,0.687-2.688,1.979-3.458s3.104-3.146,4.771-3.188c0.058-0.001,0.098,0.005,0.151,0.005  c0.015-0.448-0.083-0.769-0.168-1.037c-0.062-0.194-0.114-0.362-0.114-0.54c0-0.293,0.159-0.471,0.288-0.615  c0.139-0.154,0.198-0.23,0.169-0.404c-0.034-0.197-0.224-0.586-0.407-0.963C54.486,61.3,54.178,60.667,54.157,60.201z   M62.568,64.272c-0.31-0.515-0.375-1.122-0.384-1.467c-0.798,0.016-2.729,0.047-3.014-0.011c-0.126-0.024-0.23-0.101-0.294-0.214  c-0.147-0.26-0.134-0.715,0.389-2.178c0.148-0.418,0.25-0.581,0.311-0.679c0.035-0.081,0.02-0.23-0.003-0.438  c-0.024-0.238-0.063-0.609-0.109-1.171l-4.732,0.053c-0.047,0.788-0.09,1.662-0.074,2.012c0.016,0.362,0.327,1,0.577,1.513  c0.217,0.445,0.404,0.829,0.45,1.096c0.072,0.42-0.137,0.654-0.288,0.824c-0.106,0.118-0.161,0.184-0.161,0.281  c0,0.101,0.042,0.234,0.091,0.389c0.094,0.298,0.213,0.678,0.192,1.217c0.995,0.128,1.071,0.607,2.056,0.572  c1.167-0.043,1.083-0.271,2.583,0.438c1.5,0.707,3.271,0.688,3.375,0.25c0.069-0.292-0.047-0.896-0.212-1.422  C63.092,65.063,62.835,64.716,62.568,64.272z M37.923,81.681c-0.313-0.5-1.328-0.827-1.5-0.813  c-0.318,0.027-0.094,0.344-0.188,0.656s-0.531,0.531-0.313,0.926c0.219,0.394,0.094,0.793,0.188,1.23s0.531,0.438,0.656,0.156  s0.719-0.625,1.063-0.688s0.688-0.375,0.813-0.531S38.235,82.181,37.923,81.681z M27.818,76.89c-0.012,0.208,0.521,0.52,0.75,0.457  s0.5-0.729,0.25-0.854S27.839,76.515,27.818,76.89z M31.631,77.681c-0.375-0.166-0.604,0.25-0.604,0.25  c0.125,0.334,0.375,0.688,0.729,0.666C32.11,78.577,32.006,77.847,31.631,77.681z M34.923,79.243  c-0.688-0.271-1.543-0.541-1.584-0.313c-0.049,0.268,0.563,0.271,0.813,0.709s0.834,0.707,1.146,0.479S35.61,79.515,34.923,79.243z"></path></svg>